<svg id="Layer_1" data-name="Layer 1" xmlns="http://www.w3.org/2000/svg" viewBox="0 0 75.13 111.83"><defs><style>.cls-1{fill:#d76599;stroke:#d76599;stroke-miterlimit:10;}.cls-2{fill:#ffd082;}</style></defs><title>oplogosmall</title><text x="6.69" y="10.42"/><path class="cls-1" d="M52.25,3.58h-23V77.75H25.39V3.58H2.79V1.46H52.25V3.58Z" transform="translate(6.69 10.42)"/><path class="cls-2" d="M47.15,77.94H32.69V6.79H47.46c9.38,0,19.7-.21,19.7,16.82,0,11.39-6,16.3-13.82,17.87,8.58,1.36,15.09,6.79,15.09,18.39C68.44,76.9,56.52,77.94,47.15,77.94ZM46.83,8.88h-11V40.33h8.26C51.59,40.33,64,39.7,64,23.51,64,8.36,54.93,8.88,46.83,8.88Zm-2.7,33.43H35.87V76H46.51c8.1,0,18.59-.52,18.59-16.19C65.1,43.57,51.59,42.31,44.13,42.31Z" transform="translate(6.69 10.42)"/><text x="6.69" y="10.42"/><text x="6.69" y="10.42"/><text x="6.69" y="10.42"/></svg>