<?xml version="1.0" encoding="utf-8"?>
<!-- Generator: Adobe Illustrator 19.2.1, SVG Export Plug-In . SVG Version: 6.00 Build 0)  -->
<svg version="1.1" id="Layer_1" xmlns="http://www.w3.org/2000/svg" xmlns:xlink="http://www.w3.org/1999/xlink" x="0px" y="0px"
	 viewBox="0 0 91.6 85.6" style="enable-background:new 0 0 91.6 85.6;" xml:space="preserve">
<style type="text/css">
	.st0{fill:#D76599;stroke:#D76599;stroke-miterlimit:10;}
	.st1{fill:#FFD082;stroke:#FFD082;stroke-miterlimit:10;}
</style>
<title>oplogosmall</title>
<path class="st0" d="M45.9,22.3H26.1v58.9h-3.3V22.3H3.3v-1.7h42.5V22.3z"/>
<path class="st1" d="M42.7,81.4H30.3V26.7H43c8.1,0,16.9-0.2,16.9,12.9c0,8.8-5.2,12.5-11.9,13.7c7.4,1,13,5.2,13,14.1
	C61,80.6,50.8,81.4,42.7,81.4z M42.4,28.3H33v24.2h7.1c6.5,0,17.1-0.5,17.1-12.9C57.2,27.9,49.4,28.3,42.4,28.3z M40.1,54H33v25.9
	h9.2c7,0,16-0.4,16-12.4C58.2,55,46.5,54,40.1,54z"/>
</svg>
